# xmcd
#
# Track frame offsets:
#  150
#  31333
#  62545
#  107761
#  135891
#  163538
#  193349
#  219830
#  255997
#  279649
#  307078
#  331622
#
# Disc length: 4736 seconds
#
# Revision: 0
# Processed by: cddbd v1.5.2PL0 Copyright (c) Steve Scherf et al.
# Submitted via: AltoMP3_Maker 3.0
#
DISCID=9f127e0c
DTITLE=Test - Freestyle's Ultimate Collection, Vol. 22
DYEAR=1900
DGENRE=
TTITLE0=Maria
TTITLE1=Give Me Back My Heart
TTITLE2=First True Love
TTITLE3=Don't Look Back
TTITLE4=Is It Love
TTITLE5=Can't Take These Lie's
TTITLE6=Lonely Days
TTITLE7=Prove It
TTITLE8=I Wanna Break Night With You
TTITLE9=One Love
TTITLE10=Touch Me
TTITLE11=If You Want My Love
EXTD=
EXTT0=
EXTT1=
EXTT2=
EXTT3=
EXTT4=
EXTT5=
EXTT6=
EXTT7=
EXTT8=
EXTT9=
EXTT10=
EXTT11=
PLAYORDER=
